<?xml version="1.0" encoding="utf-8"?><!DOCTYPE svg PUBLIC "-//W3C//DTD SVG 1.1//EN" "http://www.w3.org/Graphics/SVG/1.1/DTD/svg11.dtd"><svg version="1.1" xmlns="http://www.w3.org/2000/svg" xmlns:xlink="http://www.w3.org/1999/xlink" x="0px" y="0px" viewBox="0 0 73.359 125" enable-background="new 0 0 73.359 100" xml:space="preserve"><g><g><path fill="#010101" d="M36.68,0C16.457,0,0,16.454,0,36.678c0,26.153,31.386,60.164,32.724,61.597
			c1.021,1.1,2.453,1.726,3.956,1.726c1.499,0,2.931-0.625,3.955-1.726c1.338-1.432,32.725-35.444,32.725-61.597
			C73.359,16.453,56.903,0,36.68,0z M22.202,35.523c0-7.998,6.482-14.482,14.478-14.482c7.996,0,14.478,6.482,14.478,14.482
			c0,7.996-6.481,14.478-14.478,14.478C28.685,50,22.202,43.518,22.202,35.523z"/></g></g><text x="0" y="115" fill="#000000" font-size="5px" font-weight="bold" font-family="'Helvetica Neue', Helvetica, Arial-Unicode, Arial, Sans-serif">Created by Phil Goodwin</text><text x="0" y="120" fill="#000000" font-size="5px" font-weight="bold" font-family="'Helvetica Neue', Helvetica, Arial-Unicode, Arial, Sans-serif">from the Noun Project</text></svg>